<?xml version="1.0" encoding="UTF-8"?>
<svg id="Layer_1" xmlns="http://www.w3.org/2000/svg" version="1.1" viewBox="0 0 160 160">
  <!-- Generator: Adobe Illustrator 30.0.0, SVG Export Plug-In . SVG Version: 2.1.1 Build 123)  -->
  <defs>
    <style>
      .st0 {
        fill: #446979;
      }

      .st0, .st1, .st2, .st3, .st4, .st5, .st6, .st7, .st8, .st9, .st10, .st11, .st12, .st13, .st14, .st15 {
        stroke-miterlimit: 10;
      }

      .st0, .st1, .st2, .st4, .st5, .st6, .st7, .st8, .st9, .st10, .st11, .st12, .st13, .st14, .st15 {
        stroke: #000;
      }

      .st1 {
        fill: #43484b;
      }

      .st2 {
        fill: #456a79;
      }

      .st3 {
        stroke: #fff;
      }

      .st3, .st7, .st8 {
        stroke-width: .5px;
      }

      .st3, .st8, .st12 {
        fill: #fff;
      }

      .st4 {
        fill: #436e7b;
      }

      .st6, .st7 {
        fill: #fcfcfc;
      }

      .st6, .st12 {
        stroke-width: .25px;
      }

      .st9 {
        stroke-width: .75px;
      }

      .st9, .st11, .st16 {
        fill: #8a85ae;
      }

      .st10 {
        fill: #426d7d;
      }

      .st13 {
        fill: #40697b;
      }

      .st14 {
        fill: #8a87b4;
      }

      .st15 {
        fill: #426e7b;
      }
    </style>
  </defs>
  <path class="st13" d="M14.5,67.69s4.19,8.09,4.83,8.38c0,0,4.51,53.74,57.63,76.18,0,0,15.4-4.21,35.66-25.42,0,0,21.2-29.16,21.77-49.79l3.6,1.33s-1.8,30.01-24.42,53.77c0,0-15.08,16.76-36.6,24.99,0,0-59.67-21.72-62.46-89.43Z"/>
  <path class="st1" d="M7.92,54.13l5.49,5.68,7.76,15.52s5.17,53.77,55.79,74.78c0,0,44.18-11.17,55.35-74.59l5.68,2.84s10.79,2.46,13.63-7.95c0,0,5.87-3.41,7.38-7.57l-3.03-2.65-3.98-1.89-16.47-.95-2.46-14.39-6.25-13.63s-6.44-4.35-26.13-8.52l-28.97-5.49s-6.44,4.35-10.22,10.41l-10.41,2.84-3.6-.76,2.08-3.98-4.17.76-28.02,15.9s1.33,2.65-.38,4.54l-9.09,9.09Z"/>
  <path class="st0" d="M17.05,60.1l2.34.43s5.18,18.53,24,23.93l14.98,4.54,10.37,3.34,4.47,2.91,3.75,3.69s9.39,14.41-3.75,25.63c0,0-15.41,12.07-26.69-7.17,0,0,2.13,15.62,20.02,12.64l.35,1.63s-29.04,3.9-21.37-23.85c0,0,0,17.54,17.82,17.75,0,0,14.06.28,14.34-17.04,0,0,.57-15.41-25.2-18.1,0,0-21.87-5.89-25.84-13.56,0,0-7.67-8.66-9.58-16.76Z"/>
  <path class="st2" d="M48.22,100s-14.91,9.3-2.41,26.69c0,0-8.09-13.56,2.41-26.69Z"/>
  <path class="st2" d="M39.06,119.73s-3.19-19.31,15.48-24.42c0,0-19.31.5-17.96,21.01l2.48,3.41Z"/>
  <path class="st2" d="M55.32,107.52v2.77s4.69.14,4.69,4.9l2.2.28s1.28-8.16-6.89-7.95Z"/>
  <path class="st2" d="M55.32,103.12s12.28-1.21,11.86,12.35h-2.13s-1.21-11-9.73-10.37v-1.99Z"/>
  <path class="st2" d="M55.68,100v-1.99s16.61-1.7,16.54,17.11h-1.92s-1.77-15.62-14.63-15.12Z"/>
  <rect class="st2" x="81.31" y="105.18" width="8.02" height="8.59"/>
  <polygon class="st5" points="83.29 112.41 85.71 110.64 87.48 111.53 88.05 112.41 83.29 112.41"/>
  <line class="st5" x1="84.36" y1="108.66" x2="87.41" y2="108.66"/>
  <path class="st5" d="M82.73,106.54c4.69-.02,2.63.48,2.63.48l2.06-.85"/>
  <path class="st13" d="M69.17,129.32v1.7s11.71-3.34,14.55-15.55h-2.13s-3.06,11.5-12.42,13.84Z"/>
  <polygon class="st14" points="31.68 97.97 31.68 89.44 34.71 91.43 34.71 89.44 40.82 93.32 35.09 97.58 34.9 95.97 31.68 97.97"/>
  <path class="st10" d="M11.99,52.24l2.51,1.23h1.09l-.57-3.12,3.31,1.56s2.75-7.62,6.82-11.31l-14.67-.47-.57.57v2.56l-1.89-2.27s-2.37-.76-2.46.47v2.93l-1.42-2.27-.66-.28-1.04.19s-.38-4.54.47-5.11l3.12-3.69.66,1.23,3.31-.28s1.7,0,6.25-5.02c0,0,.57-.66,5.4-1.51,0,0,12.5-2.27,16.19-10.41,0,0,.47,5.68-7.1,11.08,0,0,12.5-1.42,17.23-10.41,0,0,.47,3.69-2.56,6.82l-4.07,4.07s14.01,4.35,15.81,7.95v2.46s-13.92-10.79-22.06-6.91c0,0,13.44-.66,21.39,9.84l.19,2.84s-11.55-14.1-24.99-9.61l1.99,2.7s2.75,5.96-5.11,9.47c0,0-7.38,3.22-6.63,7.86l.47,1.04.38.57h-5.4l-2.89-.47-2.51-4.26Z"/>
  <path class="st8" d="M15.59,34.73l1.47-.85s1.47-3.12,7.81-2.65c0,0-.19.47-1.51.85l-3.12,3.31h-4.64v-.66Z"/>
  <polyline class="st3" points="4.61 37.66 5.46 38.23 6.5 37 6.97 36.05 5.79 36.05 4.61 37.14"/>
  <path class="st3" d="M18.71,34.16"/>
  <path class="st15" d="M58.02,45.11l2.2-.35s2.63-25.06,22.79-27.19c0,0-15.12,6.67-17.89,17.82h2.2s6.39-13.35,18.74-15.83c0,0-2.2,4.47,1.85,8.66,0,0,1.92,2.13,3.69,1.99,0,0,13.49,1.14,11.5,6.18,0,0,8.52,1.42,8.31-7.53,0,0-2.48,2.51-3.34,2.32l-.07-4.02-.43-.64s-.99,5.4-2.98,3.55c0,0-7.6-7.53-10.01-7.45,0,0,10.65-4.54,13.21-6.89,0,0,1.49-.14,1.35,1.92l.28,1.49s1.28-.99,1.35-3.9c0,0,1.99-1.56,3.05.85v2.34s.57,0,1.21-3.41l.99-.28s.14-6.39-6.67-6.53l.07,1.06s-3.12,1.49-8.09.07l-2.7-1.14s-3.34-.5-6.82.5c0,0-12.42,1.77-18.96-5.47,0,0,1.56,6.89,10.93,9.16,0,0-5.11.57-13.21-.28,0,0-6.11-1.77-7.67-4.19,0,0,.71,5.04,11.15,8.87,0,0-16.9,12.42-16.05,28.33Z"/>
  <path class="st7" d="M90.68,13.02l2.41.28s2.41,1.77,3.12,1.56l2.41.02s.64-.35,1.7-.93l1.06-.58s-2.41-1.85-3.76-1.85h-2.34s-4.97,1.06-4.61,1.49Z"/>
  <polygon class="st6" points="109.7 10.68 110.2 11.53 111.12 12.1 112.33 12.1 112.33 11.39 111.55 10.68 109.7 10.68"/>
  <path class="st11" d="M99.79,59.39l2.37.71s10.84-12.97,26.41-7.76c0,0-4.97,4.4-1.94,8.8,0,0,3.93,4.02,6.34,5.06,0,0,5.25,5.49,3.6,7.38s5.44,1.66,5.44,1.66c0,0,4.4-.43,5.06-5.11,0,0-1.8,1.8-3.93,1.28,0,0,1.66-2.46,1.23-3.72,0,0-1.23,2.2-2.56,1.92,0,0-1.28.66-2.41-3.74,0,0-4.02-7.67-4.73-7.86l13.82-.28s2.41.66.66,2.51l-.62,1.33s2.32.19,3.74-2.6l1.14.05-.28,3.6s.71.99,2.65-2.13l1.09-.62s1.37-3.93-.95-5.77l-2.13-2.13-.76.38s-5.96.24-6.11-1.99l-3.22-3.5-2.08-.85s-10.96-3.88-13.1-10.18c0,0-.67,5.59,2.97,9.3,0,0-11.74-5.56-12.97-11.76,0,0-.09,7.9,4.59,11.5,0,0-24.38-1.51-30.43,20.35l1.7,1.75s8.21-24.94,30.59-18.08c0,0-17.81-1.99-25.19,10.51Z"/>
  <path class="st8" d="M135.38,47.88l1.37,1.33,1.23,1.8,1.37,1.42.28.33,4.26.19s-1.42-3.41-3.31-3.79l-2.6-.66-1.23-.62h-1.37Z"/>
  <polygon class="st12" points="152.52 54.46 153.65 55.84 154.03 56.4 154.79 56.4 154.79 55.43 154.03 54.46 152.52 54.46"/>
  <path class="st9" d="M116.02,53.28v1.7l8.33-.19s.9-1.42,1.14-1.85c0,0-7.53-1.09-9.47.33Z"/>
  <path class="st9" d="M113.85,53.77l.47,2.02-2.41.95-.85-1.94s2.32-1.2,2.79-1.03Z"/>
  <path class="st9" d="M109.73,55.43l.76,1.96s-9.61,6.72-9.32,16.57c0,0-1.7-.47-1.89-2.7,0,0,.9-10.7,10.46-15.83Z"/>
  <path class="st9" d="M98.89,60.85l1.66,1.18s-2.89,5.21-2.7,8.28l-2.13-2.63s2.32-6.65,3.17-6.84Z"/>
  <path class="st9" d="M105.66,80.54s-4.26-22.43,17.56-22.06v-2.37s-22.53.71-19.93,20.73l2.37,3.69Z"/>
  <path class="st9" d="M123.22,60.43l1.76,2.18s-12.08-1.89-14.97,8.19c0,0-2.41,7.24,1.7,12.78,0,0,9.28,13.92,6.77,24l-3.27,6.77s3.12-12.35-1.14-21.25c0,0-6.44-11.5-6.91-14.39,0,0-2.89-19.41,16.05-18.27Z"/>
  <path class="st9" d="M108.97,87.74s12.73,18.27.62,34.46c0,0,6.07-14.46-.62-34.46Z"/>
  <path class="st9" d="M99.27,132.89l5.21-5.02s11.55-20.83,1.14-40.52c0,0-7-13.73-12.21-17.04,0,0-14.2-12.16-14.1-19.9,0,0-2.99-13.25,9.28-18.53l-2.27-1.51s-23.37,12.86.28,36.16c0,0,15.05,14.77,17.13,22.91l1.61.28,1.69,10.27s1.72,20.97-7.75,32.9Z"/>
  <polygon class="st16" points="88.05 40.03 88.48 51.67 97.75 45.85 88.05 40.03"/>
  <path class="st16" d="M73.43,57.54h2.57s3.49,5.77,3.77,5.77-1.51,1.38-1.51,1.38c0,0-3.6-3.47-4.83-7.16Z"/>
  <path class="st11" d="M63.58,73.96s-8.52-4.59-11.45-25.7c0,0-8.66-9.94-15.88-8.24v1.61s12.94,1.09,15.78,13.8c0,0,2.63,19.52,11.92,19.05"/>
  <path class="st11" d="M34.52,45.85l1.33-2.13s13.63-.19,14.86,13.82c0,0,1.61,9.75,5.77,15.24,0,0-4.65.72-8.61-15.24,0,0,.57-11.36-13.35-11.69Z"/>
  <polygon class="st15" points="58.8 46.94 61.25 59.43 76 55.43 73.43 44.1 58.8 46.94"/>
  <polygon class="st5" points="64.81 48.92 65.95 54.98 70.21 51.1 64.81 48.92"/>
  <rect class="st15" x="93.59" y="90.86" width="11.29" height="9.13"/>
  <polygon class="st5" points="97.66 93.13 97.66 97.97 101.35 95.55 97.66 93.13"/>
  <polygon class="st15" points="118.39 69.94 118.86 80.54 126.91 75.71 118.39 69.94"/>
  <polygon class="st15" points="27.89 72.78 35.47 65.59 41.43 70.32 34.52 78.36 27.89 72.78"/>
  <polyline class="st15" points="30.64 72.78 38.97 71.08 32.72 73.96 36.25 67.69"/>
  <path class="st15" d="M49.29,23.65l-2.18,3.41s13.49-4.07,15.9-2.89l4.39-5.06s-14.14,1.23-18.11,4.54Z"/>
  <path class="st15" d="M27.89,52.55l-1.51,1.75s.62,7,4.26,11.95l2.18-1.55-4.92-12.15Z"/>
  <polygon class="st15" points="22.78 60.1 23.82 63.03 25.53 62.56 24.86 60.38 22.78 60.1"/>
  <polygon class="st15" points="24.86 64.7 26.38 64.26 29.03 68.33 27.89 69.56 24.86 64.7"/>
  <polygon class="st15" points="38.12 77.32 36.51 78.84 40.82 81.02 42 79.17 38.12 77.32"/>
  <polygon class="st15" points="43.13 82.06 43.7 80.54 56.48 84.14 62.92 85.75 71.82 89.44 71.34 91.52 54.02 86.03 43.13 82.06"/>
  <path class="st15" d="M73.43,92.75l1.23-1.23s7.81,4.92,8.64,12.02h-1.99s-2.11-4.26-7.88-10.79Z"/>
  <polygon class="st15" points="84.36 99.19 85.89 98.62 87.41 103.09 85.32 103.54 84.36 99.19"/>
  <path class="st15" d="M85.67,115.47h1.74s-2.53,22.62-27.62,21.01l-3.31-2.84s23.45,2.65,29.19-18.18Z"/>
  <path class="st4" d="M63.95,138.57l3.24,2.65s29.94-5.81,27.16-39.19h-1.66l-.33-8.33s-4.52-10.7-14-18.46c0,0-11.18-10.6-11.56-15.15l-2.85.28s4.06,11.55,15.29,19.41c0,0,13.4,11.88,12.65,25.39,0,0,2.82,27.14-27.94,33.39Z"/>
  <polygon class="st4" points="97.19 102.54 99.5 102.54 99.23 113.34 96.81 113.34 97.19 102.54"/>
  <path class="st4" d="M96.05,115.47h2.11s-.59,17.7-23.88,28.11l-3.5-.38s20.54-10.89,25.27-27.74Z"/>
  <path class="st4" d="M64.81,83.76v-1.33s16.38,3.99,20.26,15.53h-1.35s-6.98-9-18.91-14.21Z"/>
  <path class="st4" d="M62.28,81.63v1.66s-18.95-2.65-21.46-8.05l1.18-1.28s13.21,7.05,20.28,7.67Z"/>
  <path class="st4" d="M30.64,50.42l1.04-.73s3.69,15.48,10.32,18.01c0,0,6.25,6.03,27.36,11.48,0,0,19.12,10.08,18.7,20.31,0,0-4.59-16.48-32.37-21.58,0,0-11.69-3.79-12.54-5.92v-1.66l-7.38-7.29-.95.38s-5.68-8.57-4.17-12.99Z"/>
  <path class="st4" d="M34.8,36.05l.47,2.93s8.42-.57,9.84,1.04l.95-1.8s-5.02-2.08-11.26-2.18Z"/>
  <polygon class="st4" points="47.11 41.07 48.22 39.83 49.76 41.07 48.63 42.87 47.11 41.07"/>
  <path class="st4" d="M50.1,43.72l1.45-1.51s4.84,5.21,4.93,7.48c0,0,3.5,21.3,15.34,27.07,0,0-14.29-2.08-16.14-23.81l-5.58-9.23Z"/>
  <polygon class="st4" points="68.5 58.86 70.77 58.25 78.36 68.8 77.4 70.83 68.5 58.86"/>
  <path class="st4" d="M79.24,72.31l.97-1.48s12.53,11.61,14.99,17.86l-1.61.76-14.35-17.13Z"/>
  <path class="st4" d="M79.8,66.25l1.51-1.14s16.64,13.77,19.24,24.33h-2.04s-8.84-13.44-18.71-22.53"/>
  <polygon class="st4" points="62.28 44.1 64.81 44.1 66.23 37.57 64.26 37.09 62.28 44.1"/>
  <path class="st4" d="M67.51,43.72h1.85s2.27-8.99,3.5-9.56l-1.61-1.51s-3.76,4.77-3.74,11.08Z"/>
  <path class="st4" d="M73.43,30.37l1.51,1.14s5.96-7.1,8.71-6.91v-2.27s-5.44.87-10.22,8.05Z"/>
  <path class="st11" d="M71.82,42.87h2.27s2.27-10.51,10.6-14.29l-1.04-2.18s-11.64,5.96-11.83,16.47Z"/>
  <path class="st11" d="M102.01,102.54h2.27s1.7,12.37-2.27,17.86h-2.18s2.2-.72,2.18-17.86Z"/>
  <path class="st11" d="M99.3,122.21c.68.35,1.37.69,2.05,1.04.41.21-3.35,6.85-3.74,7.45-4.67,7.28-11.64,12.9-20.06,15.16.89-.24,2.23-1.79,2.99-2.42,1.1-.91,2.19-1.84,3.27-2.78,1.98-1.72,3.95-3.47,5.86-5.27,3.65-3.43,7.15-7.2,9.12-11.88.18-.43.35-.86.5-1.3Z"/>
</svg>